<svg width="18" height="18" viewBox="0 0 18 18" fill="none" xmlns="http://www.w3.org/2000/svg">
<path d="M14.4172 4.15131C13.3286 5.49206 11.9351 6.53094 10.3459 7.15751L10.2776 7.18091C10.4512 7.54821 10.6173 7.91971 10.7695 8.29541C10.8274 8.43045 10.8777 8.56548 10.9287 8.69272C11.4651 8.6315 12.0878 8.59669 12.7181 8.59669C13.912 8.59669 15.0775 8.72153 16.2037 8.95979L16.092 8.93998C16.0805 7.1155 15.4514 5.44645 14.4114 4.1423L14.4213 4.15491L14.4172 4.15131ZM6.94297 1.53941C7.86604 2.82975 8.78101 4.30015 9.60395 5.83115L9.70697 6.03941C11.2765 5.49447 12.5942 4.53241 13.581 3.27867L13.5931 3.26307C12.2927 2.05915 10.5675 1.32335 8.67741 1.32335C8.06223 1.32335 7.4644 1.40137 6.89262 1.54841L6.94355 1.53761L6.94297 1.53941ZM1.42135 7.43658C3.86299 7.42338 6.22188 7.08249 8.46791 6.45472L8.2752 6.50033C7.31914 4.76047 6.41054 3.30868 5.4325 1.91271L5.52683 2.05435C3.44573 3.08722 1.92311 5.03474 1.43119 7.38077L1.42251 7.43178L1.42135 7.43658ZM3.17142 14.1524C4.57193 11.8226 6.64956 10.0479 9.11551 9.10623L9.19711 9.07922C9.29491 9.04561 9.39214 9.0162 9.48994 8.9892C9.30186 8.55048 9.0993 8.11416 8.88807 7.68445C6.63798 8.37703 4.05282 8.77614 1.37795 8.77614C1.33975 8.77614 1.30213 8.77614 1.26452 8.77614H1.2703L1.26741 9.0102C1.26741 9.012 1.26741 9.0138 1.26741 9.0156C1.26741 10.9943 1.99082 12.7978 3.17778 14.1578L3.172 14.1512L3.17142 14.1524ZM11.5751 16.0873C11.1804 13.8673 10.6318 11.912 9.9182 10.0437L9.99112 10.2603L9.94367 10.2753C7.44704 11.0832 5.41456 12.7912 4.15525 15.0256L4.12921 15.0754C5.37057 16.0885 6.95628 16.7001 8.67973 16.7001C9.72433 16.7001 10.718 16.4756 11.6185 16.0705L11.5705 16.0897L11.5751 16.0873ZM15.9971 10.2315C15.088 9.94705 14.0434 9.78321 12.9617 9.78321C12.4038 9.78321 11.8558 9.82702 11.3205 9.91104L11.3806 9.90324C11.9478 11.442 12.4467 13.2815 12.7904 15.178L12.8217 15.3845C14.4849 14.2082 15.6534 12.3879 15.9942 10.2771L16 10.2321L15.9971 10.2315ZM8.67857 18C3.88556 18 0 13.9705 0 9C0 4.02947 3.88556 0 8.67857 0C13.4716 0 17.3571 4.02947 17.3571 9C17.3508 13.9675 13.4687 17.9928 8.67857 18Z" fill="#586E75"/>
</svg>
