<svg width="20" height="20" viewBox="0 0 20 20" fill="none" xmlns="http://www.w3.org/2000/svg">
<path d="M9.64285 0C4.33928 0 0 4.50803 0 10.0603C0 15.0803 3.52928 19.247 8.13856 20V12.9719H5.68928V10.0603H8.13856V7.84136C8.13856 5.32128 9.57535 3.93574 11.7836 3.93574C12.8346 3.93574 13.9339 4.1265 13.9339 4.1265V6.60642H12.7189C11.5232 6.60642 11.1471 7.37951 11.1471 8.1727V10.0603H13.8278L13.3939 12.9719H11.1471V20C13.4194 19.6263 15.4885 18.4192 16.981 16.5964C18.4734 14.7737 19.2909 12.4554 19.2857 10.0603C19.2857 4.50803 14.9464 0 9.64285 0Z" fill="#586E75"/>
</svg>
