<svg width="19" height="20" viewBox="0 0 19 20" fill="none" xmlns="http://www.w3.org/2000/svg">
<path fill-rule="evenodd" clip-rule="evenodd" d="M9.16071 0.5C14.2202 0.5 18.3214 4.86043 18.3214 10.2403C18.3214 14.5428 15.6996 18.1927 12.0619 19.4819C11.5975 19.5778 11.4326 19.2737 11.4326 19.0143C11.4326 18.6932 11.4436 17.6444 11.4436 16.341C11.4436 15.4328 11.1504 14.8401 10.8216 14.538C12.8616 14.2967 15.0052 13.473 15.0052 9.73187C15.0052 8.66788 14.6498 7.79962 14.0617 7.11752C14.157 6.87147 14.4712 5.88075 13.9719 4.53935C13.9719 4.53935 13.2043 4.27836 11.4555 5.53806C10.7235 5.32241 9.93937 5.2139 9.16071 5.2101C8.38205 5.2139 7.59881 5.32241 6.86779 5.53806C5.11718 4.27836 4.34768 4.53935 4.34768 4.53935C3.85025 5.88075 4.16446 6.87147 4.25882 7.11752C3.67345 7.79962 3.31527 8.66788 3.31527 9.73187C3.31527 13.4635 5.45429 14.2998 7.48889 14.5459C7.22689 14.7891 6.98963 15.2181 6.90718 15.848C6.38502 16.0969 5.05854 16.5276 4.24141 15.039C4.24141 15.039 3.75681 14.1031 2.83707 14.0347C2.83707 14.0347 1.9439 14.0224 2.77478 14.6266C2.77478 14.6266 3.37481 14.9258 3.79162 16.0516C3.79162 16.0516 4.32936 17.7901 6.87787 17.2011C6.88245 18.0152 6.89069 18.7825 6.89069 19.0143C6.89069 19.2718 6.72213 19.5731 6.26501 19.4828C2.62454 18.1956 0 14.5438 0 10.2403C0 4.86043 4.10217 0.5 9.16071 0.5Z" fill="#586E75"/>
</svg>
