<svg width="20" height="20" viewBox="0 0 20 20" fill="none" xmlns="http://www.w3.org/2000/svg">
<path fill-rule="evenodd" clip-rule="evenodd" d="M5.66003 0.122729C4.09028 0.196179 2.72971 0.594174 1.63108 1.72868C0.528616 2.86915 0.149601 4.28569 0.0785974 5.89663C0.0344601 6.90211 -0.223632 14.4983 0.52478 16.4903C1.02948 17.8343 2.0235 18.8676 3.3313 19.3927C3.94154 19.6388 4.63816 19.8055 5.66003 19.8541C14.2044 20.2551 17.3717 20.0368 18.7073 16.4903C18.9443 15.8591 19.1074 15.1373 19.1525 14.0802C19.543 5.19669 19.0892 3.27113 17.6001 1.72868C16.4189 0.506824 15.0296 -0.32492 5.66003 0.122729ZM5.73869 18.0675C4.80317 18.0238 4.2956 17.8622 3.9569 17.7262C3.10486 17.3828 2.46488 16.7218 2.13577 15.8434C1.56582 14.3297 1.75485 7.1405 1.80571 5.9772C1.8556 4.83772 2.0782 3.79632 2.85348 2.99235C3.81298 1.99977 5.05264 1.51332 13.4934 1.90837C14.5949 1.95998 15.6014 2.19035 16.3786 2.99235C17.3381 3.98491 17.814 5.28038 17.4264 14.0001C17.3842 14.9679 17.2278 15.493 17.0963 15.8434C16.228 18.1511 14.2303 18.4715 5.73869 18.0675ZM13.5865 4.68961C13.5865 5.34669 14.1017 5.88101 14.7379 5.88101C15.374 5.88101 15.8902 5.34669 15.8902 4.68961C15.8902 4.03253 15.374 3.49869 14.7379 3.49869C14.1017 3.49869 13.5865 4.03253 13.5865 4.68961ZM4.689 9.98793C4.689 12.8029 6.8949 15.0851 9.61605 15.0851C12.3372 15.0851 14.5431 12.8029 14.5431 9.98793C14.5431 7.173 12.3372 4.89224 9.61605 4.89224C6.8949 4.89224 4.689 7.173 4.689 9.98793ZM6.41802 9.98793C6.41802 8.1616 7.84961 6.67983 9.61605 6.67983C11.3825 6.67983 12.8141 8.1616 12.8141 9.98793C12.8141 11.8153 11.3825 13.2975 9.61605 13.2975C7.84961 13.2975 6.41802 11.8153 6.41802 9.98793Z" fill="#586E75"/>
</svg>
