<svg width="18" height="18" viewBox="0 0 18 18" fill="none" xmlns="http://www.w3.org/2000/svg">
<path fill-rule="evenodd" clip-rule="evenodd" d="M3.94032 18V5.85483H0.219937V17.9999H3.94032V18ZM2.08052 4.19722C3.37748 4.19722 4.18539 3.26384 4.18539 2.09839C4.16086 0.907039 3.37748 0 2.10484 0C0.831989 3.6852e-05 0 0.907076 0 2.09843C0 3.26387 0.807465 4.19726 2.05603 4.19726L2.08052 4.19722ZM5.9994 18C5.9994 18 6.04821 6.99437 5.9994 5.85486H9.72036V7.61617H9.69566C10.1849 6.78737 11.0664 5.56967 13.0733 5.56967C15.5219 5.56967 17.3571 7.30551 17.3571 11.036V18H13.6368V11.5027C13.6368 9.87011 13.0985 8.75608 11.7517 8.75608C10.7241 8.75608 10.1117 9.50712 9.84271 10.2331C9.7443 10.4915 9.72036 10.8545 9.72036 11.2175V18H5.9994Z" fill="#586E75"/>
</svg>
